<svg width="179" height="22" viewBox="0 0 179 22" fill="none" xmlns="http://www.w3.org/2000/svg">
<path d="M9.09784 0.851179C10.2771 0.851179 11.3662 1.12415 12.3668 1.66874C13.3673 2.21332 14.152 2.95155 14.7209 3.8834C15.2898 4.81525 15.5743 5.8345 15.5743 6.94385C15.5743 8.62737 14.9425 10.0648 13.6789 11.2535C12.4154 12.4422 10.8874 13.0365 9.09784 13.0365H3.82209V21.6545H0V0.851179H9.09784ZM9.09784 9.43955C9.83539 9.43955 10.4614 9.19751 10.9774 8.71208C11.4934 8.22667 11.7507 7.6377 11.7507 6.94385C11.7507 6.25001 11.492 5.66104 10.9774 5.17563C10.4614 4.6902 9.83539 4.44816 9.09784 4.44816H3.82209V9.44089H9.09784V9.43955Z" fill="#262626"/>
<path d="M31.0212 0.851179H34.8434V21.6545H31.0212V13.0661H21.7648V21.6545H17.9428V0.851179H21.7648V9.43955H31.0212V0.851179Z" fill="#262626"/>
<path d="M42.7263 2.24828C44.4215 1.31778 46.2696 0.851179 48.2707 0.851179C50.2719 0.851179 52.1199 1.31643 53.8152 2.24828C55.5103 3.18014 56.8527 4.44278 57.8431 6.03755C58.8322 7.63233 59.3282 9.37098 59.3282 11.2535C59.3282 13.136 58.8336 14.8747 57.8431 16.4695C56.8527 18.0641 55.5103 19.3283 53.8152 20.2587C52.1199 21.1905 50.2719 21.6558 48.2707 21.6558C46.2696 21.6558 44.4215 21.1905 42.7263 20.2587C41.031 19.3283 39.6875 18.0641 38.6983 16.4695C37.7077 14.8747 37.2133 13.136 37.2133 11.2535C37.2133 9.37098 37.7077 7.63233 38.6983 6.03755C39.6875 4.44278 41.031 3.18014 42.7263 2.24828ZM43.1522 16.0674C44.5631 17.3946 46.2682 18.0589 48.2693 18.0589C50.2705 18.0589 51.9756 17.396 53.3863 16.0674C54.7972 14.7402 55.5034 13.136 55.5034 11.2535C55.5034 9.37098 54.7972 7.76679 53.3863 6.43961C51.9756 5.11243 50.269 4.44816 48.2693 4.44816C46.2697 4.44816 44.5631 5.11243 43.1522 6.43961C41.7415 7.76679 41.0353 9.37232 41.0353 11.2535C41.0353 13.1347 41.7401 14.7402 43.1522 16.0674Z" fill="#262626"/>
<path d="M60.1173 0.851179H75.6915V4.44682H69.8155V21.6545H65.9933V4.44682H60.1173V0.851179Z" fill="#262626"/>
<path d="M81.9936 2.24828C83.6887 1.31778 85.5368 0.851179 87.5381 0.851179C89.5391 0.851179 91.3873 1.31643 93.0824 2.24828C94.7777 3.18014 96.1199 4.44278 97.1104 6.03755C98.0994 7.63233 98.5954 9.37098 98.5954 11.2535C98.5954 13.136 98.1008 14.8747 97.1104 16.4695C96.1199 18.0641 94.7777 19.3283 93.0824 20.2587C91.3873 21.1905 89.5391 21.6558 87.5381 21.6558C85.5368 21.6558 83.6887 21.1905 81.9936 20.2587C80.2982 19.3283 78.9547 18.0641 77.9657 16.4695C76.9751 14.8747 76.4805 13.136 76.4805 11.2535C76.4805 9.37098 76.9751 7.63233 77.9657 6.03755C78.9547 4.44278 80.2982 3.18014 81.9936 2.24828ZM82.4194 16.0674C83.8303 17.3946 85.5354 18.0589 87.5366 18.0589C89.5377 18.0589 91.2428 17.396 92.6537 16.0674C94.0644 14.7402 94.7706 13.136 94.7706 11.2535C94.7706 9.37098 94.0644 7.76679 92.6537 6.43961C91.2428 5.11243 89.5362 4.44816 87.5366 4.44816C85.5368 4.44816 83.8303 5.11243 82.4194 6.43961C81.0087 7.76679 80.3025 9.37232 80.3025 11.2535C80.3025 13.1347 81.0073 14.7402 82.4194 16.0674Z" fill="#262626"/>
<path d="M106.871 0.388598C108.864 0.224549 110.749 0.536512 112.524 1.32583C114.3 2.11515 115.753 3.26349 116.888 4.77085C118.022 6.27823 118.677 7.96982 118.851 9.84428C119.025 11.7201 118.694 13.4923 117.855 15.1611C117.016 16.8312 115.795 18.2 114.193 19.2663C112.59 20.3341 110.792 20.9485 108.8 21.1126L102.222 21.6545L100.295 0.930498L106.873 0.388598H106.871ZM108.465 17.5303C110.458 17.3663 112.09 16.5663 113.364 15.1288C114.636 13.6914 115.19 12.0347 115.026 10.1589C114.861 8.28313 114.015 6.74214 112.487 5.53464C110.958 4.32847 109.197 3.80673 107.204 3.97078L104.436 4.19938L105.697 17.759L108.465 17.5303Z" fill="#3300CC"/>
<path d="M137.352 7.3459C137.244 8.51038 136.819 9.54981 136.08 10.4628C135.34 11.3772 134.411 12.0455 133.293 12.4704L135.99 22L131.931 21.6666L129.422 12.8389L125.08 12.4812L124.284 21.0373L120.476 20.7239L122.401 0L131.465 0.746288C133.247 0.892857 134.714 1.61091 135.863 2.89776C137.012 4.18594 137.508 5.6691 137.352 7.3459ZM130.67 9.30239C131.405 9.36291 132.051 9.1733 132.61 8.73091C133.169 8.28985 133.48 7.72913 133.543 7.04739C133.606 6.36699 133.404 5.75786 132.936 5.22267C132.467 4.6875 131.866 4.38899 131.132 4.32848L125.876 3.89549L125.413 8.86941L130.669 9.30239H130.67Z" fill="#3300CC"/>
<path d="M144.236 17.0302L140.498 20.1713L158.324 21.1355L154.978 17.6112L144.236 17.0302Z" fill="#3300CC"/>
<path d="M143.583 5.60993L140.245 2.09498L139.221 18.8643L142.965 15.7178L143.583 5.60993Z" fill="#3300CC"/>
<path d="M155.718 5.00218L159.454 1.86237L141.64 0.898252L144.985 4.42127L155.718 5.00218Z" fill="#3300CC"/>
<path d="M156.987 6.31591L156.37 16.4116L159.708 19.9279L160.732 3.16804L156.987 6.31591Z" fill="#3300CC"/>
<path d="M171.673 0.247436C172.842 0.102212 173.959 0.239369 175.027 0.656214C176.095 1.0744 176.975 1.70908 177.667 2.56294C178.361 3.41682 178.784 4.39303 178.938 5.49296C179.172 7.16305 178.745 8.66369 177.657 9.9976C176.57 11.3315 175.137 12.1087 173.364 12.3279L168.134 12.976L169.33 21.5214L165.541 21.9906L162.655 1.3662L171.675 0.24878L171.673 0.247436ZM172.865 8.76319C173.595 8.6731 174.183 8.35576 174.627 7.81118C175.072 7.26659 175.246 6.65072 175.149 5.96361C175.053 5.27648 174.714 4.72383 174.135 4.30564C173.557 3.88745 172.902 3.72474 172.171 3.81483L166.941 4.46297L167.635 9.41267L172.865 8.76454V8.76319Z" fill="#3300CC"/>
</svg>
