<svg class="svg-icon" style="width: 1em; height: 1em;vertical-align: middle;fill: currentColor;overflow: hidden;" viewBox="0 0 1024 1024" version="1.1" xmlns="http://www.w3.org/2000/svg"><path d="M160 704c-35.2 0-64 28.8-64 64v41.6c0 12.8 9.6 22.4 22.4 22.4h595.2c12.8 0 22.4-9.6 22.4-22.4v-41.6c0-35.2-28.8-64-64-64h-512z m704-224h96c19.2 0 32 12.8 32 32s-12.8 32-32 32h-96v96c0 19.2-12.8 32-32 32s-32-12.8-32-32v-96h-96c-19.2 0-32-12.8-32-32s12.8-32 32-32h96v-96c0-19.2 12.8-32 32-32s32 12.8 32 32v96z m-704 160h512c70.4 0 128 57.6 128 128v41.6c0 48-38.4 86.4-86.4 86.4h-595.2c-48 0-86.4-38.4-86.4-86.4v-41.6c0-70.4 57.6-128 128-128z m176-448c-25.6 0-48 22.4-48 48v144c0 70.4 57.6 128 128 128s128-57.6 128-128v-144c0-25.6-22.4-48-48-48h-160z m0-64h156.8c64 0 112 51.2 112 112v144c0 105.6-86.4 192-192 192s-192-86.4-192-192v-144c3.2-60.8 54.4-112 115.2-112z"  /></svg>